<svg width="100" height="100" viewBox="0 0 100 100" fill="none" xmlns="http://www.w3.org/2000/svg">
<g clip-path="url(#clip0_2091_5)">
<path d="M50 0C77.6142 0 100 22.3858 100 50C100 77.6142 77.6142 100 50 100C22.3858 100 0 77.6142 0 50C0 22.3858 22.3858 0 50 0ZM50.5068 26C50.428 26.0149 49.1831 30.3135 47.7373 35.5654L45.1045 45.1309L35.5879 47.7852C30.358 49.2438 26.0458 50.4907 26 50.5576C25.9612 50.6227 30.2433 51.8755 35.5156 53.3408L45.1025 56.0049L47.627 65.1982C49.0154 70.2544 50.2406 74.632 50.3496 74.9258C50.5131 75.3642 51.0201 73.745 53.2285 65.7334L55.9092 56.0078L65.4131 53.3574C70.6403 51.8995 74.917 50.6448 74.917 50.5693C74.9105 50.4922 70.6368 49.2389 65.4141 47.7822L55.9102 45.1309L53.2764 35.5654C51.8281 30.3045 50.5818 26 50.5068 26Z" fill="#F59E0A"/>
</g>
<defs>
<clipPath id="clip0_2091_5">
<rect width="100" height="100" fill="white"/>
</clipPath>
</defs>
</svg>
